<?xml version="1.0" encoding="UTF-8"?>
<svg id="Layer_2" data-name="Layer 2" xmlns="http://www.w3.org/2000/svg" viewBox="0 0 810.63 662.62">
  <g id="Layer_1-2" data-name="Layer 1">
    <g>
      <path d="M810.24,563.3c-.38-.9-.51-2.61-.65-4.41l-.12-1.54c-2.37-27.59-23.48-53.28-54.34-66.66,16.31-29.24,32.96-69.88,33.57-101.63.16-8.37-2.96-16.45-8.34-21.6-5.55-5.31-12.59-7.86-20.79-7.57-31.9,1.12-71.98,44.89-73.67,46.75-23.66,26.07-42.23,52.29-56.74,80.09-24.17,9.25-35.23,13.49-56.17,30.67l-3.36,2.74c-7.48,6.09-14.55,11.84-21,19.27-10.73,12.35-19.32,24.29-26.65,37.09-9.53-13.72-14.66-35.38-11.41-50.83l.07-.45c2.36-20.99,15.68-48.35,27.02-69.84,24.34-46.12,54.47-90.97,92.12-137.13,17.77-21.79,31.33-37.2,45.36-51.54,1.13-1.16,2.3-2.28,3.48-3.41,3.18-3.05,6.46-6.2,9.25-10.17h0c.93-1.33,1.13-3.04.53-4.55h0c-1.48-3.68-4.27-4.66-5.8-4.92-5.93-.99-12.32,4.9-22.02,16.11-.34.39-.64.74-.93,1.07l-5.9-2.31c-3.25-1.28-7.92.09-10.84,2.1l-42.48,40.35c-30.83,29.35-100.63,124.51-122.65,155.53-13.13,18.49-27.28,36.53-45.88,58.47-1.24,1.46-2.47,2.92-3.68,4.37-8.24,9.81-16.02,19.07-25.83,26.68-1.95,1.52-4.44,2.25-6.35,1.88-1.18-.23-2.03-.86-2.67-1.96-.88-1.52-.71-5.75.67-8.15l19.51-33.96,49.56-75.83,113.04-171.78,4.17-2.21c3.51-1.86,3.38-6.93-.23-8.6h0c-.54-.25-1.13-.48-1.74-.68l-2.28-.58c-3.11-.57-6.64-.4-9.56,1.13l-2.66,1.39c-28.64,15-40.5,21.2-62.76,49.35l-62.49,78.99-47.83,59.3c-38.75,48.03-73.25,80.11-119.09,110.72-48.46,32.36-105,43.63-155.11,30.91-13.8-3.5-26.21-12.71-39.05-28.97-14.02-17.76-13.98-30.48-13.88-55.81,0-2.33.02-4.76.02-7.3v-1.99l-1.41-1.41c-1.74-1.73-4.36-2.12-7.01-1.04-2.77,1.13-5.59,3.73-5.63,7-.43,30.92,3.78,50.35,14.09,64.96,15.41,21.83,35.69,35.56,58.66,39.7,15.29,2.76,29.85,4.15,44.07,4.15,27.43,0,53.56-5.2,81.06-15.85,41.98-16.26,90.99-50.41,124.85-87.02,17.85-19.29,33.17-38.23,46.82-57.88l21.06-30.3,32.35-45.95c14.47-20.56,28.14-39.98,43.38-59.46,13-16.61,22.64-24.25,36.76-32.06-31.69,48.44-67.09,98.14-107.85,151.42l-5.84,7.62c-14.3,18.64-27.82,36.24-40.41,55.93-12.38,19.35-19.32,35.36-22.48,51.9-1.88,9.77,2.55,19.59,11,24.43,8.34,4.77,18.53,3.46,26.6-3.43,9.64-8.24,17.26-17.39,25.34-27.07,1.46-1.76,2.94-3.52,4.43-5.3,18.95-22.48,34.05-41.9,47.51-61.12,38.83-55.46,73.32-100.04,108.51-140.31,13.39-15.32,27.83-28.6,43.13-42.65,2.54-2.33,5.09-4.71,7.64-7.07l-9.77,10.68-34.89,39.72c-36.68,41.76-85.87,103.74-111.89,161.85-20.02,44.7-13.76,82.94,18.59,113.71-4.34,11.13-16.06,43.87-8.42,51.75,1.2,1.24,4.6,3.79,10.21.75h0c1.86-1.01,2.83-3.11,2.41-5.18h0c-.84-4.09-1.02-5.85-.45-8.21,2.21-9.07,4.66-19.16,8.33-29.01,33.42,22.93,52.2,21.83,88.44,12.17,8.6,13.79,19.3,28.32,35.95,34.97,13.99,5.59,28.96,8.33,44.02,8.33,25,0,50.22-7.55,71.45-22.15,10.49-7.21,18.01-15.35,25.98-23.97,1.73-1.87,3.49-3.78,5.34-5.74,8.64-9.16,13.57-29.94,14.97-39.65l.05-6.91-.38-.9ZM683.77,648.79c-26.23-.93-43.49-11.09-56.78-33.75,30.73-11.75,62.29-34.83,87.44-64.12,11.78-14.47,22.28-29.63,33.73-48.76,18.96,7.34,35.34,22.75,42.35,40.11,7.04,17.44,5.96,37.23-2.88,52.94-6.6,11.73-16.58,20.73-26.24,28.96-20.5,17.45-47.28,25.97-77.59,24.63h-.04ZM741.08,485.58c-16.4-5.15-40.17-8.45-58.34-8.45-5.77,0-10.98.33-15.2,1.05l-17.27,2.91c20.27-34.78,52.51-76.63,87.77-98.72,9.87-6.18,18.01-9.06,25.6-9.06h0c5.67,0,10,6.61,10.09,12.52.41,29.62-15.79,70.74-32.65,99.75ZM734.28,497.31c-26.42,43.97-52.61,70.59-92.05,93.91-7.63,3.95-13.98,6.77-20.9,9.25-4.64-15.75-3.79-40.15.31-55.03,4.34-15.76,10.69-31.1,19.93-48.13,28.46-8.7,64.68-8.64,92.71,0ZM606.77,604.48c-34.67,8.55-47.79,9.1-74.41-15.99,11.3-21.74,26.36-40.57,44.82-55.99,11.7-9.78,25.72-20.36,43.02-27.36-15.86,34.45-22.71,63.3-13.43,99.35Z"/>
      <path d="M69.62,443.79c12,0,23.87-.84,36.23-1.71l.31-.02c17.11-1.21,32.88-4.87,49.58-8.74,4.1-.95,8.23-1.91,12.41-2.84l28.12,4.19,33.85,5.59c11.54,1.9,23.85.83,32.1-.14,28.34-3.33,61.11-17.59,83.48-36.32,15.67-13.11,29.94-28.68,44.92-49,21.71-29.46,42.4-63.13,46.79-109.63,1.96-20.75-1.24-42.09-9.5-63.45,65.98-81.09,133.32-78.33,159.37-73.32,35.65,6.85,58.17,38.19,54.77,76.21-1.76,19.67-12.23,42.97-20.65,56.95h0c-1.25,2.08-.76,4.77,1.16,6.26h0c1.97,1.53,4.36,2.04,6.73,1.44,5.95-1.5,10.64-9.7,15.86-21.56l.61-1.38c9.28-20.25,13.13-37.44,12.1-54.08-2.36-38.15-29.02-69.01-66.34-76.79-30.22-6.3-60.93-3.25-88.57,8.74-28.73,10.86-57.32,30.25-85.08,57.67-12.71-22.73-30.34-41.36-53.71-56.8-16.64-10.99-31.05-17.86-46.25-22C310.43,38.32,271.18,4.59,221.31.53c-31.21-2.54-59.97,4.57-83.98,11.87C72.06,32.25,34.51,86.24,14.51,128.04l-.25.51c-3.98,8.32-7.75,16.18-10.46,25.28-9.47,31.79-.98,66.46,22.15,91.3-11.68,26.07-23.36,62.61-1.95,91.08,23.95,33.81,75.84,37.61,111.7,22.01,16.46,12.62,32.28,21.21,54.41,22.59,8.19.25,18.72-2.85,23.81-12.32h0c2.05-3.82-1.61-8.18-5.72-6.83h0c-2.37.78-4.54,1.86-6.65,2.91-2.35,1.17-4.58,2.28-6.56,2.68-14.21,2.86-31.99-5.65-45.11-15.28,21.12-10.26,40.24-22.86,59.63-39.25,28.25-23.89,50.48-50.07,67.98-80.04,12.14-20.8,22.1-41.45,30.48-63.13,9.1-23.57,12.91-47.22,11.6-72.09,11.95,3.86,22.64,9.8,34.54,17.33,23.22,14.71,41.31,34.23,53.81,58.06l-23.98,26.75c-13.96,15.58-27.67,31.62-40.92,47.14-17,19.9-34.58,40.47-52.8,60.18-14.9,16.12-30.1,30.45-46.19,45.63-4.34,4.1-8.71,8.21-13.08,12.38-23.91,22.78-47.95,38.96-73.45,49.42l-3.61-.81c-28.45-6.42-57.86-13.06-86.73-8.69-7.89.34-31.35,6.73-38.6,14.55-2.03,2.19-2.99,4.54-2.86,6.98.64,12.03,25.44,16.68,28.95,16.92,5.05.34,10.03.49,15,.49ZM356.08,276.17l45.78-61.29c4.88-6.54,9.81-12.89,15.49-19.97,11.07,33.06,6.55,75.82-12.24,111.43-15.29,28.99-34.98,55.44-58.52,78.62-23.45,23.09-56.41,38.97-88.16,42.48-10.99,1.21-19.42,1.24-26.53.07l-38.13-6.28c64.23-29.31,132.99-105.8,162.32-145.07ZM133.42,421.97c-17.46,4.75-36.46,7.47-57.58,8.27-1.55.06-3.13.14-4.73.22-10.44.53-21.18,1.07-29.57-3.99,6.22-4.34,14.24-7.1,24.35-8.4l12.26-1.57c13.18-1.68,35.37,1.14,55.28,5.46ZM193.45,13.91c4.63-.65,9.17-.98,14.09-.98,5.2,0,10.84.37,17.45,1.1,42.75,4.74,70,35.17,76.78,64.92-26.41-5.17-49.52-9.38-77.46-3.33-30.95,6.6-59.43,18.15-87.1,35.3-44.99,27.89-82.78,79.19-104.51,120.22-18.7-23.94-22.23-55.87-8.97-84.96,9.74-21.37,19.59-38.81,30.89-54.7,27.84-35.64,54.05-55.4,87.63-66.05,16.48-5.23,33.23-9,51.2-11.53ZM127.92,264.58c3.65-11.23,8.8-21.58,15.22-33.16,12.67-22.86,30.14-40.91,51.92-53.65,3.73-2.18,8.91-3.42,13.6-3.42,1.95,0,3.82.21,5.46.66,2.6.71,4.39,1.92,5.33,3.59,1.55,2.78,1.6,6.38.15,9.88-6.31,15.22-15.49,29.32-28.06,43.08h0c-13.82,15.12-41.93,29.44-63.62,33.02ZM41.39,321.73c-6.12-19.36.64-42.93,6.65-58.02,17.74,11.83,36.63,17.01,61.47,16.82-2.35,17.22-.56,33.39,5.34,48.17,2.09,6.28,4.84,11.78,8.66,17.22-19.63,6.85-41.57,7.18-57.38.61-11.76-4.88-20.08-13.23-24.74-24.8ZM128.47,324.79c-5.78-15.14-7.2-30.88-4.14-45.72,28.14-4.35,53.43-15.64,73.33-32.76,12.77-10.99,37.2-43.88,38.42-61.82.75-11.05-8.48-19.46-17.55-21.77-12.01-3.06-24.01-1.08-34.72,5.72-32.3,20.53-56.42,52.35-69.76,92.01l-2.13,6.32c-22.53.69-39.85-2.1-58.44-16.2,27.27-57.57,60.67-100.41,99.21-127.27,32.89-21.35,63.99-33.06,95.09-35.79,19.01-1.67,37.09,1.99,56.23,5.87l.12.02c1.71,21.72-.56,41.16-7.08,60.91-10.32,31.25-25.95,61.82-47.78,93.47-32.43,42.27-72.11,75.11-112.08,92.81-3.8-4.22-6.29-9.45-8.72-15.81Z"/>
    </g>
  </g>
</svg>